<?xml version="1.0" encoding="UTF-8" standalone="no"?>
<!DOCTYPE svg PUBLIC "-//W3C//DTD SVG 1.1//EN" "http://www.w3.org/Graphics/SVG/1.1/DTD/svg11.dtd">
<svg xmlns="http://www.w3.org/2000/svg" xmlns:xlink="http://www.w3.org/1999/xlink" width="854pt" height="404pt" viewBox="0.00 0.00 854.00 404.00">
  <g id="graph0" class="graph" transform="scale(1 1) rotate(0) translate(4 400)">
    <title>G</title>
    <polygon fill="white" stroke="none" points="-4,4 -4,-400 850,-400 850,4 -4,4"/>
    <g id="node1" class="node">
      <title>:feature:exploregeopoints</title>
      <ellipse fill="none" stroke="black" cx="620.07" cy="-378" rx="105.09" ry="18"/>
      <text text-anchor="middle" x="620.07" y="-372.95" font-family="Times,serif" font-size="14.00">:feature:exploregeopoints</text>
    </g>
    <g id="node2" class="node">
      <title>:core:data</title>
      <ellipse fill="none" stroke="black" cx="438.07" cy="-234" rx="47.26" ry="18"/>
      <text text-anchor="middle" x="438.07" y="-228.95" font-family="Times,serif" font-size="14.00">:core:data</text>
    </g>
    <g id="edge1" class="edge">
      <title>:feature:exploregeopoints-&gt;:core:data</title>
      <path fill="none" stroke="black" d="M598.47,-360.15C565.75,-334.62 503.54,-286.08 466.95,-257.54"/>
      <polygon fill="black" stroke="black" points="469.47,-255.06 459.43,-251.67 465.16,-260.58 469.47,-255.06"/>
    </g>
    <g id="node3" class="node">
      <title>:core:model</title>
      <ellipse fill="none" stroke="black" cx="224.07" cy="-90" rx="55.45" ry="18"/>
      <text text-anchor="middle" x="224.07" y="-84.95" font-family="Times,serif" font-size="14.00">:core:model</text>
    </g>
    <g id="edge2" class="edge">
      <title>:feature:exploregeopoints-&gt;:core:model</title>
      <path fill="none" stroke="black" d="M556.33,-363.27C507.5,-352.7 438.48,-337.63 378.07,-324 205.12,-284.98 67.77,-346.21 6.07,-180 0.5,-165 -3.82,-156.58 6.07,-144 25.02,-119.88 103.17,-105.38 160.5,-97.79"/>
      <polygon fill="black" stroke="black" points="160.69,-101.3 170.16,-96.56 159.8,-94.35 160.69,-101.3"/>
    </g>
    <g id="node4" class="node">
      <title>:soundwave</title>
      <ellipse fill="none" stroke="black" cx="791.07" cy="-18" rx="54.93" ry="18"/>
      <text text-anchor="middle" x="791.07" y="-12.95" font-family="Times,serif" font-size="14.00">:soundwave</text>
    </g>
    <g id="edge3" class="edge">
      <title>:feature:exploregeopoints-&gt;:soundwave</title>
      <path fill="none" stroke="black" d="M688.19,-363.87C754.09,-346.76 844.07,-309.71 844.07,-235 844.07,-235 844.07,-235 844.07,-161 844.07,-118.53 823,-73.18 807.43,-45.45"/>
      <polygon fill="black" stroke="black" points="810.6,-43.93 802.55,-37.04 804.54,-47.45 810.6,-43.93"/>
    </g>
    <g id="node5" class="node">
      <title>:core:assets</title>
      <ellipse fill="none" stroke="black" cx="710.07" cy="-90" rx="53.4" ry="18"/>
      <text text-anchor="middle" x="710.07" y="-84.95" font-family="Times,serif" font-size="14.00">:core:assets</text>
    </g>
    <g id="edge4" class="edge">
      <title>:feature:exploregeopoints-&gt;:core:assets</title>
      <path fill="none" stroke="black" d="M627.24,-359.6C641.07,-325.58 671.75,-247.64 691.07,-180 696.78,-160 701.64,-137.04 705.01,-119.45"/>
      <polygon fill="black" stroke="black" points="708.43,-120.19 706.83,-109.72 701.55,-118.91 708.43,-120.19"/>
    </g>
    <g id="node6" class="node">
      <title>:core:network</title>
      <ellipse fill="none" stroke="black" cx="620.07" cy="-162" rx="62.1" ry="18"/>
      <text text-anchor="middle" x="620.07" y="-156.95" font-family="Times,serif" font-size="14.00">:core:network</text>
    </g>
    <g id="edge5" class="edge">
      <title>:feature:exploregeopoints-&gt;:core:network</title>
      <path fill="none" stroke="black" d="M620.07,-359.85C620.07,-323.14 620.07,-236.66 620.07,-191.53"/>
      <polygon fill="black" stroke="black" points="623.57,-191.75 620.07,-181.75 616.57,-191.75 623.57,-191.75"/>
    </g>
    <g id="node7" class="node">
      <title>:core:ui</title>
      <ellipse fill="none" stroke="black" cx="777.07" cy="-162" rx="39.07" ry="18"/>
      <text text-anchor="middle" x="777.07" y="-156.95" font-family="Times,serif" font-size="14.00">:core:ui</text>
    </g>
    <g id="edge6" class="edge">
      <title>:feature:exploregeopoints-&gt;:core:ui</title>
      <path fill="none" stroke="black" d="M668.54,-361.57C688.12,-353.2 709.49,-341 724.07,-324 756.88,-285.73 769.51,-226.59 774.27,-191.64"/>
      <polygon fill="black" stroke="black" points="777.73,-192.22 775.47,-181.87 770.78,-191.37 777.73,-192.22"/>
    </g>
    <g id="node8" class="node">
      <title>:core:work</title>
      <ellipse fill="none" stroke="black" cx="438.07" cy="-306" rx="50.84" ry="18"/>
      <text text-anchor="middle" x="438.07" y="-300.95" font-family="Times,serif" font-size="14.00">:core:work</text>
    </g>
    <g id="edge7" class="edge">
      <title>:feature:exploregeopoints-&gt;:core:work</title>
      <path fill="none" stroke="red" stroke-width="2" d="M578.77,-361.12C549.9,-350.01 511.42,-335.21 481.99,-323.9"/>
      <polygon fill="red" stroke="red" stroke-width="2" points="485.01,-321.31 474.42,-320.98 482.5,-327.84 485.01,-321.31"/>
    </g>
    <g id="edge10" class="edge">
      <title>:core:data-&gt;:core:model</title>
      <path fill="none" stroke="black" d="M415.46,-217.73C400.74,-207.51 381.33,-193.51 365.07,-180 347.17,-165.13 346.04,-157.46 327.07,-144 308.38,-130.75 285.93,-118.8 266.77,-109.61"/>
      <polygon fill="black" stroke="black" points="268.41,-106.52 257.87,-105.45 265.44,-112.86 268.41,-106.52"/>
    </g>
    <g id="edge11" class="edge">
      <title>:core:data-&gt;:core:network</title>
      <path fill="none" stroke="red" stroke-width="2" d="M470.6,-220.49C499.17,-209.5 541.07,-193.38 573.25,-181.01"/>
      <polygon fill="red" stroke="red" stroke-width="2" points="572.85,-184.91 580.92,-178.05 570.33,-178.38 572.85,-184.91"/>
    </g>
    <g id="node9" class="node">
      <title>:core:database</title>
      <ellipse fill="none" stroke="black" cx="438.07" cy="-162" rx="63.63" ry="18"/>
      <text text-anchor="middle" x="438.07" y="-156.95" font-family="Times,serif" font-size="14.00">:core:database</text>
    </g>
    <g id="edge8" class="edge">
      <title>:core:data-&gt;:core:database</title>
      <path fill="none" stroke="black" d="M438.07,-215.7C438.07,-208.41 438.07,-199.73 438.07,-191.54"/>
      <polygon fill="black" stroke="black" points="441.57,-191.62 438.07,-181.62 434.57,-191.62 441.57,-191.62"/>
    </g>
    <g id="node10" class="node">
      <title>:core:location</title>
      <ellipse fill="none" stroke="black" cx="256.07" cy="-162" rx="61.59" ry="18"/>
      <text text-anchor="middle" x="256.07" y="-156.95" font-family="Times,serif" font-size="14.00">:core:location</text>
    </g>
    <g id="edge9" class="edge">
      <title>:core:data-&gt;:core:location</title>
      <path fill="none" stroke="black" d="M405.53,-220.49C376.96,-209.5 335.06,-193.38 302.89,-181.01"/>
      <polygon fill="black" stroke="black" points="304.38,-177.83 293.79,-177.51 301.87,-184.37 304.38,-177.83"/>
    </g>
    <g id="node11" class="node">
      <title>:core:preferences</title>
      <ellipse fill="none" stroke="black" cx="102.07" cy="-162" rx="74.38" ry="18"/>
      <text text-anchor="middle" x="102.07" y="-156.95" font-family="Times,serif" font-size="14.00">:core:preferences</text>
    </g>
    <g id="edge12" class="edge">
      <title>:core:data-&gt;:core:preferences</title>
      <path fill="none" stroke="black" d="M397.2,-224.49C340.21,-212.61 236.22,-190.95 168.13,-176.76"/>
      <polygon fill="black" stroke="black" points="169.09,-173.39 158.59,-174.78 167.67,-180.24 169.09,-173.39"/>
    </g>
    <g id="node12" class="node">
      <title>:core:utils</title>
      <ellipse fill="none" stroke="black" cx="560.07" cy="-90" rx="47.77" ry="18"/>
      <text text-anchor="middle" x="560.07" y="-84.95" font-family="Times,serif" font-size="14.00">:core:utils</text>
    </g>
    <g id="edge13" class="edge">
      <title>:core:data-&gt;:core:utils</title>
      <path fill="none" stroke="black" d="M463.57,-218.43C478.69,-208.9 497.49,-195.38 511.07,-180 527.19,-161.73 540.17,-137.27 548.72,-118.62"/>
      <polygon fill="black" stroke="black" points="551.9,-120.07 552.73,-109.51 545.49,-117.25 551.9,-120.07"/>
    </g>
    <g id="edge18" class="edge">
      <title>:core:assets-&gt;:soundwave</title>
      <path fill="none" stroke="red" stroke-width="2" d="M728.85,-72.76C739.28,-63.75 752.43,-52.39 763.96,-42.43"/>
      <polygon fill="red" stroke="red" stroke-width="2" points="764.81,-46.31 770.09,-37.13 760.24,-41.02 764.81,-46.31"/>
    </g>
    <g id="edge15" class="edge">
      <title>:core:network-&gt;:core:model</title>
      <path fill="none" stroke="black" d="M568.3,-151.85C494.66,-138.83 360.06,-115.04 282.79,-101.38"/>
      <polygon fill="black" stroke="black" points="283.77,-98 273.31,-99.71 282.55,-104.89 283.77,-98"/>
    </g>
    <g id="edge17" class="edge">
      <title>:core:network-&gt;:core:assets</title>
      <path fill="none" stroke="red" stroke-width="2" d="M640.94,-144.76C652.72,-135.6 667.64,-124 680.6,-113.92"/>
      <polygon fill="red" stroke="red" stroke-width="2" points="681.48,-117.67 687.23,-108.76 677.18,-112.14 681.48,-117.67"/>
    </g>
    <g id="edge16" class="edge">
      <title>:core:network-&gt;:core:utils</title>
      <path fill="none" stroke="black" d="M605.54,-144.05C598.29,-135.59 589.37,-125.19 581.36,-115.84"/>
      <polygon fill="black" stroke="black" points="584.19,-113.77 575.03,-108.46 578.88,-118.33 584.19,-113.77"/>
    </g>
    <g id="edge20" class="edge">
      <title>:core:ui-&gt;:soundwave</title>
      <path fill="none" stroke="black" d="M778.78,-143.59C781.15,-119.61 785.43,-76.14 788.26,-47.42"/>
      <polygon fill="black" stroke="black" points="791.73,-47.91 789.23,-37.62 784.77,-47.23 791.73,-47.91"/>
    </g>
    <g id="edge21" class="edge">
      <title>:core:ui-&gt;:core:assets</title>
      <path fill="none" stroke="black" d="M761.86,-145.12C753.5,-136.38 742.95,-125.35 733.55,-115.54"/>
      <polygon fill="black" stroke="black" points="736.16,-113.2 726.72,-108.4 731.11,-118.04 736.16,-113.2"/>
    </g>
    <g id="edge22" class="edge">
      <title>:core:work-&gt;:core:data</title>
      <path fill="none" stroke="red" stroke-width="2" d="M438.07,-287.7C438.07,-280.41 438.07,-271.73 438.07,-263.54"/>
      <polygon fill="red" stroke="red" stroke-width="2" points="441.57,-265.13 438.07,-255.13 434.57,-265.13 441.57,-265.13"/>
    </g>
    <g id="edge23" class="edge">
      <title>:core:work-&gt;:core:model</title>
      <path fill="none" stroke="black" d="M391.71,-298.18C292.35,-282.5 64.2,-240.56 19.07,-180 -20.79,-126.51 85.34,-104.73 159.36,-96.19"/>
      <polygon fill="black" stroke="black" points="159.41,-99.7 168.97,-95.14 158.65,-92.74 159.41,-99.7"/>
    </g>
    <g id="edge14" class="edge">
      <title>:core:database-&gt;:core:model</title>
      <path fill="none" stroke="black" d="M397.56,-147.75C362.16,-136.17 310.67,-119.33 272.98,-107"/>
      <polygon fill="black" stroke="black" points="274.28,-103.74 263.68,-103.96 272.1,-110.4 274.28,-103.74"/>
    </g>
    <g id="edge19" class="edge">
      <title>:core:preferences-&gt;:core:model</title>
      <path fill="none" stroke="black" d="M130.06,-144.94C147.15,-135.13 169.19,-122.48 187.64,-111.9"/>
      <polygon fill="black" stroke="black" points="189.22,-115.03 196.15,-107.02 185.73,-108.96 189.22,-115.03"/>
    </g>
  </g>
</svg>
