<?xml version="1.0" encoding="UTF-8" standalone="no"?>
<!DOCTYPE svg PUBLIC "-//W3C//DTD SVG 1.1//EN" "http://www.w3.org/Graphics/SVG/1.1/DTD/svg11.dtd">
<svg xmlns="http://www.w3.org/2000/svg" xmlns:xlink="http://www.w3.org/1999/xlink" width="240pt" height="116pt" viewBox="0.00 0.00 240.12 116.00">
  <g id="graph0" class="graph" transform="scale(1 1) rotate(0) translate(4 112)">
    <title>G</title>
    <polygon fill="white" stroke="none" points="-4,4 -4,-112 236.12,-112 236.12,4 -4,4"/>
    <g id="node1" class="node">
      <title>:data:user</title>
      <ellipse fill="none" stroke="black" cx="122.54" cy="-90" rx="45.57" ry="18"/>
      <text text-anchor="middle" x="122.54" y="-84.58" font-family="Times,serif" font-size="14.00">:data:user</text>
    </g>
    <g id="node2" class="node">
      <title>:core:network</title>
      <ellipse fill="none" stroke="black" cx="60.54" cy="-18" rx="60.54" ry="18"/>
      <text text-anchor="middle" x="60.54" y="-12.57" font-family="Times,serif" font-size="14.00">:core:network</text>
    </g>
    <g id="edge1" class="edge">
      <title>:data:user-&gt;:core:network</title>
      <path fill="none" stroke="red" stroke-width="2" d="M108.16,-72.76C100.61,-64.23 91.17,-53.58 82.7,-44.02"/>
      <polygon fill="red" stroke="red" stroke-width="2" points="86.53,-43.06 77.28,-37.9 81.29,-47.71 86.53,-43.06"/>
    </g>
    <g id="node3" class="node">
      <title>:core:utils</title>
      <ellipse fill="none" stroke="black" cx="185.54" cy="-18" rx="46.57" ry="18"/>
      <text text-anchor="middle" x="185.54" y="-12.57" font-family="Times,serif" font-size="14.00">:core:utils</text>
    </g>
    <g id="edge2" class="edge">
      <title>:data:user-&gt;:core:utils</title>
      <path fill="none" stroke="black" d="M137.16,-72.76C144.95,-64.11 154.7,-53.27 163.4,-43.6"/>
      <polygon fill="black" stroke="black" points="165.91,-46.05 170,-36.27 160.71,-41.36 165.91,-46.05"/>
    </g>
  </g>
</svg>
