<?xml version="1.0" encoding="UTF-8" standalone="no"?>
<!DOCTYPE svg PUBLIC "-//W3C//DTD SVG 1.1//EN" "http://www.w3.org/Graphics/SVG/1.1/DTD/svg11.dtd">
<svg xmlns="http://www.w3.org/2000/svg" xmlns:xlink="http://www.w3.org/1999/xlink" width="396pt" height="332pt" viewBox="0.00 0.00 396.40 332.00">
  <g id="graph0" class="graph" transform="scale(1 1) rotate(0) translate(4 328)">
    <title>G</title>
    <polygon fill="white" stroke="none" points="-4,4 -4,-328 392.4,-328 392.4,4 -4,4"/>
    <g id="node1" class="node">
      <title>:feature:addgeopoint</title>
      <ellipse fill="none" stroke="black" cx="146.3" cy="-306" rx="87.18" ry="18"/>
      <text text-anchor="middle" x="146.3" y="-300.95" font-family="Times,serif" font-size="14.00">:feature:addgeopoint</text>
    </g>
    <g id="node2" class="node">
      <title>:core:assets</title>
      <ellipse fill="none" stroke="black" cx="66.3" cy="-90" rx="53.4" ry="18"/>
      <text text-anchor="middle" x="66.3" y="-84.95" font-family="Times,serif" font-size="14.00">:core:assets</text>
    </g>
    <g id="edge1" class="edge">
      <title>:feature:addgeopoint-&gt;:core:assets</title>
      <path fill="none" stroke="black" d="M126.69,-288.23C116.69,-278.62 105.22,-265.75 98.3,-252 76.74,-209.15 69.7,-153.04 67.4,-119.64"/>
      <polygon fill="black" stroke="black" points="70.91,-119.72 66.84,-109.93 63.92,-120.12 70.91,-119.72"/>
    </g>
    <g id="node3" class="node">
      <title>:core:ui</title>
      <ellipse fill="none" stroke="black" cx="146.3" cy="-234" rx="39.07" ry="18"/>
      <text text-anchor="middle" x="146.3" y="-228.95" font-family="Times,serif" font-size="14.00">:core:ui</text>
    </g>
    <g id="edge2" class="edge">
      <title>:feature:addgeopoint-&gt;:core:ui</title>
      <path fill="none" stroke="red" stroke-width="2" d="M146.3,-287.7C146.3,-280.41 146.3,-271.73 146.3,-263.54"/>
      <polygon fill="red" stroke="red" stroke-width="2" points="149.8,-265.13 146.3,-255.13 142.8,-265.13 149.8,-265.13"/>
    </g>
    <g id="node4" class="node">
      <title>:data:geopoint</title>
      <ellipse fill="none" stroke="black" cx="238.3" cy="-162" rx="63.63" ry="18"/>
      <text text-anchor="middle" x="238.3" y="-156.95" font-family="Times,serif" font-size="14.00">:data:geopoint</text>
    </g>
    <g id="edge3" class="edge">
      <title>:feature:addgeopoint-&gt;:data:geopoint</title>
      <path fill="none" stroke="black" d="M163.59,-288.35C173.36,-278.39 185.36,-265.14 194.3,-252 207.47,-232.65 219.05,-208.78 227.02,-190.63"/>
      <polygon fill="black" stroke="black" points="230.19,-192.13 230.9,-181.56 223.75,-189.38 230.19,-192.13"/>
    </g>
    <g id="node5" class="node">
      <title>:data:user</title>
      <ellipse fill="none" stroke="black" cx="324.3" cy="-90" rx="46.75" ry="18"/>
      <text text-anchor="middle" x="324.3" y="-84.95" font-family="Times,serif" font-size="14.00">:data:user</text>
    </g>
    <g id="edge4" class="edge">
      <title>:feature:addgeopoint-&gt;:data:user</title>
      <path fill="none" stroke="black" d="M180.94,-289.15C219.67,-269.45 280.94,-231.98 311.3,-180 321.91,-161.84 324.95,-138.14 325.45,-119.77"/>
      <polygon fill="black" stroke="black" points="328.95,-119.83 325.46,-109.82 321.95,-119.82 328.95,-119.83"/>
    </g>
    <g id="node6" class="node">
      <title>:soundwave</title>
      <ellipse fill="none" stroke="black" cx="66.3" cy="-18" rx="54.93" ry="18"/>
      <text text-anchor="middle" x="66.3" y="-12.95" font-family="Times,serif" font-size="14.00">:soundwave</text>
    </g>
    <g id="edge5" class="edge">
      <title>:feature:addgeopoint-&gt;:soundwave</title>
      <path fill="none" stroke="black" d="M120.58,-288.56C107.1,-279.05 91.02,-266.17 79.3,-252 33.32,-196.39 21.46,-178.09 4.3,-108 0.49,-92.46 -2.4,-86.53 4.3,-72 9.98,-59.67 20.11,-49.13 30.55,-40.79"/>
      <polygon fill="black" stroke="black" points="32.53,-43.68 38.49,-34.92 28.37,-38.05 32.53,-43.68"/>
    </g>
    <g id="edge6" class="edge">
      <title>:core:assets-&gt;:soundwave</title>
      <path fill="none" stroke="red" stroke-width="2" d="M66.3,-71.7C66.3,-64.41 66.3,-55.73 66.3,-47.54"/>
      <polygon fill="red" stroke="red" stroke-width="2" points="69.8,-49.13 66.3,-39.13 62.8,-49.13 69.8,-49.13"/>
    </g>
    <g id="edge7" class="edge">
      <title>:core:ui-&gt;:core:assets</title>
      <path fill="none" stroke="black" d="M136.81,-216.15C123.09,-191.81 97.6,-146.57 81.32,-117.67"/>
      <polygon fill="black" stroke="black" points="84.48,-116.14 76.52,-109.14 78.38,-119.57 84.48,-116.14"/>
    </g>
    <g id="edge8" class="edge">
      <title>:core:ui-&gt;:data:geopoint</title>
      <path fill="none" stroke="red" stroke-width="2" d="M165.81,-218.15C177.98,-208.89 193.9,-196.78 207.73,-186.26"/>
      <polygon fill="red" stroke="red" stroke-width="2" points="208.64,-189.96 214.48,-181.12 204.4,-184.39 208.64,-189.96"/>
    </g>
    <g id="edge9" class="edge">
      <title>:core:ui-&gt;:soundwave</title>
      <path fill="none" stroke="black" d="M148.32,-215.83C151.12,-185.03 153.33,-119.22 128.3,-72 121.89,-59.9 111.48,-49.38 101,-40.98"/>
      <polygon fill="black" stroke="black" points="103.19,-38.24 93.09,-35.05 98.99,-43.85 103.19,-38.24"/>
    </g>
    <g id="edge10" class="edge">
      <title>:data:geopoint-&gt;:core:assets</title>
      <path fill="none" stroke="red" stroke-width="2" d="M203.08,-146.67C176.15,-135.71 138.87,-120.53 110.03,-108.8"/>
      <polygon fill="red" stroke="red" stroke-width="2" points="112.82,-106.15 102.23,-105.63 110.18,-112.64 112.82,-106.15"/>
    </g>
    <g id="edge13" class="edge">
      <title>:data:geopoint-&gt;:data:user</title>
      <path fill="none" stroke="black" d="M258.25,-144.76C269.58,-135.53 283.96,-123.83 296.4,-113.7"/>
      <polygon fill="black" stroke="black" points="298.33,-116.65 303.88,-107.62 293.91,-111.22 298.33,-116.65"/>
    </g>
    <g id="node7" class="node">
      <title>:core:network</title>
      <ellipse fill="none" stroke="black" cx="326.3" cy="-18" rx="62.1" ry="18"/>
      <text text-anchor="middle" x="326.3" y="-12.95" font-family="Times,serif" font-size="14.00">:core:network</text>
    </g>
    <g id="edge11" class="edge">
      <title>:data:geopoint-&gt;:core:network</title>
      <path fill="none" stroke="black" d="M241.41,-143.8C245.39,-125 253.61,-94.54 268.3,-72 275.43,-61.06 285.33,-50.9 294.94,-42.45"/>
      <polygon fill="black" stroke="black" points="297.01,-45.29 302.43,-36.18 292.52,-39.92 297.01,-45.29"/>
    </g>
    <g id="node8" class="node">
      <title>:core:utils</title>
      <ellipse fill="none" stroke="black" cx="198.3" cy="-18" rx="47.77" ry="18"/>
      <text text-anchor="middle" x="198.3" y="-12.95" font-family="Times,serif" font-size="14.00">:core:utils</text>
    </g>
    <g id="edge12" class="edge">
      <title>:data:geopoint-&gt;:core:utils</title>
      <path fill="none" stroke="black" d="M233.39,-143.59C226.61,-119.5 214.29,-75.75 206.2,-47.03"/>
      <polygon fill="black" stroke="black" points="209.61,-46.24 203.53,-37.57 202.87,-48.14 209.61,-46.24"/>
    </g>
    <g id="edge14" class="edge">
      <title>:data:user-&gt;:core:network</title>
      <path fill="none" stroke="black" d="M324.79,-71.7C325,-64.41 325.25,-55.73 325.48,-47.54"/>
      <polygon fill="black" stroke="black" points="328.98,-47.71 325.77,-37.62 321.98,-47.51 328.98,-47.71"/>
    </g>
    <g id="edge15" class="edge">
      <title>:data:user-&gt;:core:utils</title>
      <path fill="none" stroke="black" d="M298.5,-74.67C279.9,-64.33 254.56,-50.25 234.01,-38.84"/>
      <polygon fill="black" stroke="black" points="235.83,-35.85 225.39,-34.05 232.43,-41.97 235.83,-35.85"/>
    </g>
  </g>
</svg>
