<?xml version="1.0" encoding="UTF-8" standalone="no"?>
<!DOCTYPE svg PUBLIC "-//W3C//DTD SVG 1.1//EN" "http://www.w3.org/Graphics/SVG/1.1/DTD/svg11.dtd">
<svg xmlns="http://www.w3.org/2000/svg" xmlns:xlink="http://www.w3.org/1999/xlink" width="374pt" height="260pt" viewBox="0.00 0.00 373.70 260.00">
  <g id="graph0" class="graph" transform="scale(1 1) rotate(0) translate(4 256)">
    <title>G</title>
    <polygon fill="white" stroke="none" points="-4,4 -4,-256 369.7,-256 369.7,4 -4,4"/>
    <g id="node1" class="node">
      <title>:core:work</title>
      <ellipse fill="none" stroke="black" cx="204.93" cy="-234" rx="50.84" ry="18"/>
      <text text-anchor="middle" x="204.93" y="-228.95" font-family="Times,serif" font-size="14.00">:core:work</text>
    </g>
    <g id="node2" class="node">
      <title>:data:geopoint</title>
      <ellipse fill="none" stroke="black" cx="204.93" cy="-162" rx="63.63" ry="18"/>
      <text text-anchor="middle" x="204.93" y="-156.95" font-family="Times,serif" font-size="14.00">:data:geopoint</text>
    </g>
    <g id="edge1" class="edge">
      <title>:core:work-&gt;:data:geopoint</title>
      <path fill="none" stroke="red" stroke-width="2" d="M204.93,-215.7C204.93,-208.41 204.93,-199.73 204.93,-191.54"/>
      <polygon fill="red" stroke="red" stroke-width="2" points="208.43,-193.13 204.93,-183.13 201.43,-193.13 208.43,-193.13"/>
    </g>
    <g id="node3" class="node">
      <title>:core:assets</title>
      <ellipse fill="none" stroke="black" cx="70.93" cy="-90" rx="53.4" ry="18"/>
      <text text-anchor="middle" x="70.93" y="-84.95" font-family="Times,serif" font-size="14.00">:core:assets</text>
    </g>
    <g id="edge2" class="edge">
      <title>:data:geopoint-&gt;:core:assets</title>
      <path fill="none" stroke="red" stroke-width="2" d="M175.53,-145.64C155.93,-135.4 129.99,-121.85 108.84,-110.8"/>
      <polygon fill="red" stroke="red" stroke-width="2" points="112.06,-108.54 101.58,-107.01 108.82,-114.74 112.06,-108.54"/>
    </g>
    <g id="node4" class="node">
      <title>:core:network</title>
      <ellipse fill="none" stroke="black" cx="189.93" cy="-18" rx="62.1" ry="18"/>
      <text text-anchor="middle" x="189.93" y="-12.95" font-family="Times,serif" font-size="14.00">:core:network</text>
    </g>
    <g id="edge3" class="edge">
      <title>:data:geopoint-&gt;:core:network</title>
      <path fill="none" stroke="black" d="M197.45,-143.7C193.46,-133.52 188.96,-120.27 186.93,-108 183.62,-87.92 184.5,-64.96 186.15,-47.39"/>
      <polygon fill="black" stroke="black" points="189.6,-48.02 187.2,-37.7 182.64,-47.26 189.6,-48.02"/>
    </g>
    <g id="node5" class="node">
      <title>:core:utils</title>
      <ellipse fill="none" stroke="black" cx="317.93" cy="-18" rx="47.77" ry="18"/>
      <text text-anchor="middle" x="317.93" y="-12.95" font-family="Times,serif" font-size="14.00">:core:utils</text>
    </g>
    <g id="edge4" class="edge">
      <title>:data:geopoint-&gt;:core:utils</title>
      <path fill="none" stroke="black" d="M244.58,-147.57C263.77,-139.1 285.51,-126.27 298.93,-108 311.68,-90.66 316.24,-66.59 317.72,-47.85"/>
      <polygon fill="black" stroke="black" points="321.21,-48.11 318.22,-37.94 314.22,-47.75 321.21,-48.11"/>
    </g>
    <g id="node6" class="node">
      <title>:data:user</title>
      <ellipse fill="none" stroke="black" cx="242.93" cy="-90" rx="46.75" ry="18"/>
      <text text-anchor="middle" x="242.93" y="-84.95" font-family="Times,serif" font-size="14.00">:data:user</text>
    </g>
    <g id="edge5" class="edge">
      <title>:data:geopoint-&gt;:data:user</title>
      <path fill="none" stroke="black" d="M214.13,-144.05C218.43,-136.14 223.64,-126.54 228.45,-117.69"/>
      <polygon fill="black" stroke="black" points="231.4,-119.58 233.1,-109.12 225.25,-116.24 231.4,-119.58"/>
    </g>
    <g id="node7" class="node">
      <title>:soundwave</title>
      <ellipse fill="none" stroke="black" cx="54.93" cy="-18" rx="54.93" ry="18"/>
      <text text-anchor="middle" x="54.93" y="-12.95" font-family="Times,serif" font-size="14.00">:soundwave</text>
    </g>
    <g id="edge6" class="edge">
      <title>:core:assets-&gt;:soundwave</title>
      <path fill="none" stroke="red" stroke-width="2" d="M66.98,-71.7C65.29,-64.32 63.28,-55.52 61.39,-47.25"/>
      <polygon fill="red" stroke="red" stroke-width="2" points="65.16,-48.02 59.52,-39.06 58.33,-49.58 65.16,-48.02"/>
    </g>
    <g id="edge7" class="edge">
      <title>:data:user-&gt;:core:network</title>
      <path fill="none" stroke="black" d="M230.37,-72.41C224.19,-64.25 216.6,-54.22 209.67,-45.07"/>
      <polygon fill="black" stroke="black" points="212.51,-43.02 203.69,-37.16 206.93,-47.25 212.51,-43.02"/>
    </g>
    <g id="edge8" class="edge">
      <title>:data:user-&gt;:core:utils</title>
      <path fill="none" stroke="black" d="M259.95,-73.12C269.57,-64.14 281.78,-52.74 292.51,-42.73"/>
      <polygon fill="black" stroke="black" points="294.69,-45.48 299.62,-36.1 289.92,-40.36 294.69,-45.48"/>
    </g>
  </g>
</svg>
