<?xml version="1.0" encoding="UTF-8" standalone="no"?>
<!DOCTYPE svg PUBLIC "-//W3C//DTD SVG 1.1//EN" "http://www.w3.org/Graphics/SVG/1.1/DTD/svg11.dtd">
<svg xmlns="http://www.w3.org/2000/svg" xmlns:xlink="http://www.w3.org/1999/xlink" width="157pt" height="188pt" viewBox="0.00 0.00 157.33 188.00">
  <g id="graph0" class="graph" transform="scale(1 1) rotate(0) translate(4 184)">
    <title>G</title>
    <polygon fill="white" stroke="none" points="-4,4 -4,-184 153.33,-184 153.33,4 -4,4"/>
    <g id="node1" class="node">
      <title>:core:ui</title>
      <ellipse fill="none" stroke="black" cx="54.93" cy="-162" rx="39.07" ry="18"/>
      <text text-anchor="middle" x="54.93" y="-156.95" font-family="Times,serif" font-size="14.00">:core:ui</text>
    </g>
    <g id="node2" class="node">
      <title>:soundwave</title>
      <ellipse fill="none" stroke="black" cx="54.93" cy="-18" rx="54.93" ry="18"/>
      <text text-anchor="middle" x="54.93" y="-12.95" font-family="Times,serif" font-size="14.00">:soundwave</text>
    </g>
    <g id="edge1" class="edge">
      <title>:core:ui-&gt;:soundwave</title>
      <path fill="none" stroke="black" d="M46.43,-144.31C41.72,-134.11 36.35,-120.64 33.93,-108 30.93,-92.28 30.93,-87.72 33.93,-72 35.55,-63.54 38.49,-54.71 41.67,-46.74"/>
      <polygon fill="black" stroke="black" points="44.89,-48.13 45.62,-37.56 38.45,-45.36 44.89,-48.13"/>
    </g>
    <g id="node3" class="node">
      <title>:core:assets</title>
      <ellipse fill="none" stroke="black" cx="95.93" cy="-90" rx="53.4" ry="18"/>
      <text text-anchor="middle" x="95.93" y="-84.95" font-family="Times,serif" font-size="14.00">:core:assets</text>
    </g>
    <g id="edge2" class="edge">
      <title>:core:ui-&gt;:core:assets</title>
      <path fill="none" stroke="red" stroke-width="2" d="M64.65,-144.41C69.33,-136.42 75.06,-126.64 80.33,-117.64"/>
      <polygon fill="red" stroke="red" stroke-width="2" points="82.44,-120.97 84.47,-110.57 76.4,-117.43 82.44,-120.97"/>
    </g>
    <g id="edge3" class="edge">
      <title>:core:assets-&gt;:soundwave</title>
      <path fill="none" stroke="red" stroke-width="2" d="M86.01,-72.05C81.38,-64.14 75.75,-54.54 70.57,-45.69"/>
      <polygon fill="red" stroke="red" stroke-width="2" points="74.37,-45.26 66.3,-38.4 68.33,-48.8 74.37,-45.26"/>
    </g>
  </g>
</svg>
