<?xml version="1.0" encoding="UTF-8" standalone="no"?>
<!DOCTYPE svg PUBLIC "-//W3C//DTD SVG 1.1//EN" "http://www.w3.org/Graphics/SVG/1.1/DTD/svg11.dtd">
<svg xmlns="http://www.w3.org/2000/svg" xmlns:xlink="http://www.w3.org/1999/xlink" width="730pt" height="332pt" viewBox="0.00 0.00 730.23 332.00">
  <g id="graph0" class="graph" transform="scale(1 1) rotate(0) translate(4 328)">
    <title>G</title>
    <polygon fill="white" stroke="none" points="-4,4 -4,-328 726.23,-328 726.23,4 -4,4"/>
    <g id="node1" class="node">
      <title>:core:domain</title>
      <ellipse fill="none" stroke="black" cx="380.46" cy="-306" rx="60.05" ry="18"/>
      <text text-anchor="middle" x="380.46" y="-300.95" font-family="Times,serif" font-size="14.00">:core:domain</text>
    </g>
    <g id="node2" class="node">
      <title>:core:data</title>
      <ellipse fill="none" stroke="black" cx="380.46" cy="-234" rx="47.26" ry="18"/>
      <text text-anchor="middle" x="380.46" y="-228.95" font-family="Times,serif" font-size="14.00">:core:data</text>
    </g>
    <g id="edge1" class="edge">
      <title>:core:domain-&gt;:core:data</title>
      <path fill="none" stroke="red" stroke-width="2" d="M380.46,-287.7C380.46,-280.41 380.46,-271.73 380.46,-263.54"/>
      <polygon fill="red" stroke="red" stroke-width="2" points="383.96,-265.13 380.46,-255.13 376.96,-265.13 383.96,-265.13"/>
    </g>
    <g id="node3" class="node">
      <title>:core:model</title>
      <ellipse fill="none" stroke="black" cx="334.46" cy="-90" rx="55.45" ry="18"/>
      <text text-anchor="middle" x="334.46" y="-84.95" font-family="Times,serif" font-size="14.00">:core:model</text>
    </g>
    <g id="edge2" class="edge">
      <title>:core:domain-&gt;:core:model</title>
      <path fill="none" stroke="black" d="M320.34,-304.87C234.49,-301.05 79.26,-279.79 7.46,-180 -1.89,-167.01 -2.91,-156.19 7.46,-144 40.15,-105.58 181.6,-94.93 267.4,-92.03"/>
      <polygon fill="black" stroke="black" points="267.46,-95.53 277.35,-91.72 267.24,-88.53 267.46,-95.53"/>
    </g>
    <g id="node4" class="node">
      <title>:core:utils</title>
      <ellipse fill="none" stroke="black" cx="674.46" cy="-90" rx="47.77" ry="18"/>
      <text text-anchor="middle" x="674.46" y="-84.95" font-family="Times,serif" font-size="14.00">:core:utils</text>
    </g>
    <g id="edge3" class="edge">
      <title>:core:domain-&gt;:core:utils</title>
      <path fill="none" stroke="black" d="M434.74,-297.94C501.28,-286.15 611.91,-255.74 666.46,-180 678.94,-162.67 680.31,-138.25 678.91,-119.37"/>
      <polygon fill="black" stroke="black" points="682.42,-119.25 677.88,-109.67 675.46,-119.99 682.42,-119.25"/>
    </g>
    <g id="edge6" class="edge">
      <title>:core:data-&gt;:core:model</title>
      <path fill="none" stroke="black" d="M370.53,-216.32C364.84,-206.12 357.94,-192.65 353.46,-180 346.51,-160.4 341.68,-137.43 338.63,-119.73"/>
      <polygon fill="black" stroke="black" points="342.1,-119.23 337.04,-109.92 335.19,-120.35 342.1,-119.23"/>
    </g>
    <g id="edge9" class="edge">
      <title>:core:data-&gt;:core:utils</title>
      <path fill="none" stroke="black" d="M426.35,-229.03C492.36,-222.44 609.67,-207.21 641.46,-180 659.16,-164.84 667.38,-139.26 671.18,-119.41"/>
      <polygon fill="black" stroke="black" points="674.61,-120.14 672.75,-109.71 667.7,-119.02 674.61,-120.14"/>
    </g>
    <g id="node5" class="node">
      <title>:core:database</title>
      <ellipse fill="none" stroke="black" cx="426.46" cy="-162" rx="63.63" ry="18"/>
      <text text-anchor="middle" x="426.46" y="-156.95" font-family="Times,serif" font-size="14.00">:core:database</text>
    </g>
    <g id="edge4" class="edge">
      <title>:core:data-&gt;:core:database</title>
      <path fill="none" stroke="black" d="M391.59,-216.05C396.85,-208.06 403.24,-198.33 409.11,-189.4"/>
      <polygon fill="black" stroke="black" points="412.03,-191.33 414.59,-181.05 406.18,-187.49 412.03,-191.33"/>
    </g>
    <g id="node6" class="node">
      <title>:core:location</title>
      <ellipse fill="none" stroke="black" cx="78.46" cy="-162" rx="61.59" ry="18"/>
      <text text-anchor="middle" x="78.46" y="-156.95" font-family="Times,serif" font-size="14.00">:core:location</text>
    </g>
    <g id="edge5" class="edge">
      <title>:core:data-&gt;:core:location</title>
      <path fill="none" stroke="black" d="M340.78,-224.02C294.74,-213.57 216.56,-195.73 149.46,-180 145.14,-178.99 140.67,-177.93 136.18,-176.87"/>
      <polygon fill="black" stroke="black" points="137.05,-173.48 126.51,-174.57 135.43,-180.29 137.05,-173.48"/>
    </g>
    <g id="node7" class="node">
      <title>:core:network</title>
      <ellipse fill="none" stroke="black" cx="570.46" cy="-162" rx="62.1" ry="18"/>
      <text text-anchor="middle" x="570.46" y="-156.95" font-family="Times,serif" font-size="14.00">:core:network</text>
    </g>
    <g id="edge7" class="edge">
      <title>:core:data-&gt;:core:network</title>
      <path fill="none" stroke="red" stroke-width="2" d="M413.55,-220.81C443.68,-209.71 488.51,-193.19 522.55,-180.65"/>
      <polygon fill="red" stroke="red" stroke-width="2" points="522.17,-184.52 530.35,-177.78 519.75,-177.95 522.17,-184.52"/>
    </g>
    <g id="node8" class="node">
      <title>:core:preferences</title>
      <ellipse fill="none" stroke="black" cx="232.46" cy="-162" rx="74.38" ry="18"/>
      <text text-anchor="middle" x="232.46" y="-156.95" font-family="Times,serif" font-size="14.00">:core:preferences</text>
    </g>
    <g id="edge8" class="edge">
      <title>:core:data-&gt;:core:preferences</title>
      <path fill="none" stroke="black" d="M351.57,-219.34C329.93,-209.1 299.97,-194.93 275.5,-183.36"/>
      <polygon fill="black" stroke="black" points="277.3,-180.34 266.77,-179.23 274.31,-186.67 277.3,-180.34"/>
    </g>
    <g id="edge10" class="edge">
      <title>:core:database-&gt;:core:model</title>
      <path fill="none" stroke="black" d="M405.12,-144.76C392.96,-135.51 377.53,-123.77 364.19,-113.63"/>
      <polygon fill="black" stroke="black" points="366.64,-111.09 356.57,-107.82 362.41,-116.66 366.64,-111.09"/>
    </g>
    <g id="edge11" class="edge">
      <title>:core:network-&gt;:core:model</title>
      <path fill="none" stroke="black" d="M528.26,-148.49C488.22,-136.61 427.99,-118.74 385.31,-106.08"/>
      <polygon fill="black" stroke="black" points="386.35,-102.74 375.77,-103.25 384.36,-109.45 386.35,-102.74"/>
    </g>
    <g id="edge12" class="edge">
      <title>:core:network-&gt;:core:utils</title>
      <path fill="none" stroke="black" d="M594.32,-144.94C608.62,-135.31 626.99,-122.95 642.53,-112.49"/>
      <polygon fill="black" stroke="black" points="644.18,-115.6 650.52,-107.11 640.27,-109.79 644.18,-115.6"/>
    </g>
    <g id="node9" class="node">
      <title>:core:assets</title>
      <ellipse fill="none" stroke="black" cx="555.46" cy="-90" rx="53.4" ry="18"/>
      <text text-anchor="middle" x="555.46" y="-84.95" font-family="Times,serif" font-size="14.00">:core:assets</text>
    </g>
    <g id="edge13" class="edge">
      <title>:core:network-&gt;:core:assets</title>
      <path fill="none" stroke="red" stroke-width="2" d="M566.75,-143.7C565.17,-136.32 563.28,-127.52 561.51,-119.25"/>
      <polygon fill="red" stroke="red" stroke-width="2" points="565.27,-120.11 559.76,-111.06 558.43,-121.58 565.27,-120.11"/>
    </g>
    <g id="edge15" class="edge">
      <title>:core:preferences-&gt;:core:model</title>
      <path fill="none" stroke="black" d="M256.37,-144.59C269.99,-135.24 287.25,-123.4 302.07,-113.23"/>
      <polygon fill="black" stroke="black" points="303.88,-116.23 310.15,-107.68 299.92,-110.46 303.88,-116.23"/>
    </g>
    <g id="node10" class="node">
      <title>:soundwave</title>
      <ellipse fill="none" stroke="black" cx="555.46" cy="-18" rx="54.93" ry="18"/>
      <text text-anchor="middle" x="555.46" y="-12.95" font-family="Times,serif" font-size="14.00">:soundwave</text>
    </g>
    <g id="edge14" class="edge">
      <title>:core:assets-&gt;:soundwave</title>
      <path fill="none" stroke="red" stroke-width="2" d="M555.46,-71.7C555.46,-64.41 555.46,-55.73 555.46,-47.54"/>
      <polygon fill="red" stroke="red" stroke-width="2" points="558.96,-49.13 555.46,-39.13 551.96,-49.13 558.96,-49.13"/>
    </g>
  </g>
</svg>
