<?xml version="1.0" encoding="UTF-8" standalone="no"?>
<!DOCTYPE svg PUBLIC "-//W3C//DTD SVG 1.1//EN" "http://www.w3.org/Graphics/SVG/1.1/DTD/svg11.dtd">
<svg xmlns="http://www.w3.org/2000/svg" xmlns:xlink="http://www.w3.org/1999/xlink" width="921pt" height="404pt" viewBox="0.00 0.00 921.36 404.00">
  <g id="graph0" class="graph" transform="scale(1 1) rotate(0) translate(4 400)">
    <title>G</title>
    <polygon fill="white" stroke="none" points="-4,4 -4,-400 917.36,-400 917.36,4 -4,4"/>
    <g id="node1" class="node">
      <title>:feature:addgeopoint</title>
      <ellipse fill="none" stroke="black" cx="739.43" cy="-378" rx="87.18" ry="18"/>
      <text text-anchor="middle" x="739.43" y="-372.95" font-family="Times,serif" font-size="14.00">:feature:addgeopoint</text>
    </g>
    <g id="node2" class="node">
      <title>:core:domain</title>
      <ellipse fill="none" stroke="black" cx="114.43" cy="-306" rx="60.05" ry="18"/>
      <text text-anchor="middle" x="114.43" y="-300.95" font-family="Times,serif" font-size="14.00">:core:domain</text>
    </g>
    <g id="edge1" class="edge">
      <title>:feature:addgeopoint-&gt;:core:domain</title>
      <path fill="none" stroke="red" stroke-width="2" d="M664.04,-368.56C540.87,-354.76 298.48,-327.61 181.17,-314.48"/>
      <polygon fill="red" stroke="red" stroke-width="2" points="183.21,-311.18 172.88,-313.55 182.43,-318.14 183.21,-311.18"/>
    </g>
    <g id="node3" class="node">
      <title>:core:model</title>
      <ellipse fill="none" stroke="black" cx="417.43" cy="-90" rx="55.45" ry="18"/>
      <text text-anchor="middle" x="417.43" y="-84.95" font-family="Times,serif" font-size="14.00">:core:model</text>
    </g>
    <g id="edge2" class="edge">
      <title>:feature:addgeopoint-&gt;:core:model</title>
      <path fill="none" stroke="black" d="M740.61,-359.84C743.56,-311.45 749.08,-175.41 720.43,-144 689.47,-110.06 563.28,-97.8 483.83,-93.41"/>
      <polygon fill="black" stroke="black" points="484.15,-89.92 473.98,-92.9 483.79,-96.91 484.15,-89.92"/>
    </g>
    <g id="node4" class="node">
      <title>:soundwave</title>
      <ellipse fill="none" stroke="black" cx="858.43" cy="-18" rx="54.93" ry="18"/>
      <text text-anchor="middle" x="858.43" y="-12.95" font-family="Times,serif" font-size="14.00">:soundwave</text>
    </g>
    <g id="edge3" class="edge">
      <title>:feature:addgeopoint-&gt;:soundwave</title>
      <path fill="none" stroke="black" d="M784.17,-362.16C835.13,-342.09 911.43,-301.02 911.43,-235 911.43,-235 911.43,-235 911.43,-161 911.43,-118.53 890.36,-73.18 874.79,-45.45"/>
      <polygon fill="black" stroke="black" points="877.96,-43.93 869.91,-37.04 871.91,-47.45 877.96,-43.93"/>
    </g>
    <g id="node5" class="node">
      <title>:core:assets</title>
      <ellipse fill="none" stroke="black" cx="777.43" cy="-90" rx="53.4" ry="18"/>
      <text text-anchor="middle" x="777.43" y="-84.95" font-family="Times,serif" font-size="14.00">:core:assets</text>
    </g>
    <g id="edge4" class="edge">
      <title>:feature:addgeopoint-&gt;:core:assets</title>
      <path fill="none" stroke="black" d="M744.65,-359.97C747.63,-349.65 751.21,-336.17 753.43,-324 766.73,-251.05 773.26,-163.8 775.91,-119.64"/>
      <polygon fill="black" stroke="black" points="779.4,-120.07 776.48,-109.89 772.41,-119.67 779.4,-120.07"/>
    </g>
    <g id="node6" class="node">
      <title>:core:data</title>
      <ellipse fill="none" stroke="black" cx="268.43" cy="-234" rx="47.26" ry="18"/>
      <text text-anchor="middle" x="268.43" y="-228.95" font-family="Times,serif" font-size="14.00">:core:data</text>
    </g>
    <g id="edge5" class="edge">
      <title>:feature:addgeopoint-&gt;:core:data</title>
      <path fill="none" stroke="black" d="M691.67,-362.6C601.18,-335.32 405.72,-276.39 315.64,-249.23"/>
      <polygon fill="black" stroke="black" points="316.71,-245.9 306.13,-246.37 314.69,-252.6 316.71,-245.9"/>
    </g>
    <g id="node7" class="node">
      <title>:core:network</title>
      <ellipse fill="none" stroke="black" cx="649.43" cy="-162" rx="62.1" ry="18"/>
      <text text-anchor="middle" x="649.43" y="-156.95" font-family="Times,serif" font-size="14.00">:core:network</text>
    </g>
    <g id="edge6" class="edge">
      <title>:feature:addgeopoint-&gt;:core:network</title>
      <path fill="none" stroke="black" d="M732.21,-359.85C716.68,-322.91 679.94,-235.55 661.06,-190.67"/>
      <polygon fill="black" stroke="black" points="664.36,-189.49 657.26,-181.63 657.91,-192.2 664.36,-189.49"/>
    </g>
    <g id="node8" class="node">
      <title>:core:ui</title>
      <ellipse fill="none" stroke="black" cx="844.43" cy="-162" rx="39.07" ry="18"/>
      <text text-anchor="middle" x="844.43" y="-156.95" font-family="Times,serif" font-size="14.00">:core:ui</text>
    </g>
    <g id="edge7" class="edge">
      <title>:feature:addgeopoint-&gt;:core:ui</title>
      <path fill="none" stroke="black" d="M760.01,-360.15C770.65,-350.51 783.11,-337.65 791.43,-324 817.32,-281.47 832.14,-224.82 839.21,-191.3"/>
      <polygon fill="black" stroke="black" points="842.63,-192.04 841.17,-181.55 835.77,-190.66 842.63,-192.04"/>
    </g>
    <g id="edge9" class="edge">
      <title>:core:domain-&gt;:core:model</title>
      <path fill="none" stroke="black" d="M108.12,-288.05C97.35,-255.84 79.72,-185.3 114.43,-144 143.98,-108.83 270.65,-96.99 350.56,-93.01"/>
      <polygon fill="black" stroke="black" points="350.66,-96.51 360.49,-92.55 350.33,-89.52 350.66,-96.51"/>
    </g>
    <g id="edge8" class="edge">
      <title>:core:domain-&gt;:core:data</title>
      <path fill="none" stroke="red" stroke-width="2" d="M146.34,-290.5C170.16,-279.67 202.86,-264.8 228.43,-253.18"/>
      <polygon fill="red" stroke="red" stroke-width="2" points="228.49,-257 236.15,-249.67 225.6,-250.62 228.49,-257"/>
    </g>
    <g id="node9" class="node">
      <title>:core:utils</title>
      <ellipse fill="none" stroke="black" cx="68.43" cy="-90" rx="47.77" ry="18"/>
      <text text-anchor="middle" x="68.43" y="-84.95" font-family="Times,serif" font-size="14.00">:core:utils</text>
    </g>
    <g id="edge10" class="edge">
      <title>:core:domain-&gt;:core:utils</title>
      <path fill="none" stroke="black" d="M71.41,-293.1C50.96,-285.04 28.41,-272.1 16.43,-252 -8.15,-210.77 -1.73,-188.43 16.43,-144 21.08,-132.61 29.5,-122.34 38.22,-113.94"/>
      <polygon fill="black" stroke="black" points="40.31,-116.77 45.44,-107.5 35.65,-111.55 40.31,-116.77"/>
    </g>
    <g id="edge21" class="edge">
      <title>:core:assets-&gt;:soundwave</title>
      <path fill="none" stroke="red" stroke-width="2" d="M796.21,-72.76C806.64,-63.75 819.79,-52.39 831.32,-42.43"/>
      <polygon fill="red" stroke="red" stroke-width="2" points="832.17,-46.31 837.45,-37.13 827.6,-41.02 832.17,-46.31"/>
    </g>
    <g id="edge13" class="edge">
      <title>:core:data-&gt;:core:model</title>
      <path fill="none" stroke="black" d="M222.42,-229.36C189.43,-224.06 147.13,-211.19 125.43,-180 116.29,-166.87 115.17,-156.28 125.43,-144 153.63,-110.21 274.24,-97.92 351.36,-93.48"/>
      <polygon fill="black" stroke="black" points="351.1,-97 360.89,-92.96 350.72,-90.01 351.1,-97"/>
    </g>
    <g id="edge14" class="edge">
      <title>:core:data-&gt;:core:network</title>
      <path fill="none" stroke="red" stroke-width="2" d="M311.98,-226.48C372.12,-217.26 483.89,-199.38 578.43,-180 582.97,-179.07 587.66,-178.06 592.36,-177.01"/>
      <polygon fill="red" stroke="red" stroke-width="2" points="591.39,-180.82 600.36,-175.18 589.83,-174 591.39,-180.82"/>
    </g>
    <g id="edge16" class="edge">
      <title>:core:data-&gt;:core:utils</title>
      <path fill="none" stroke="black" d="M224.52,-226.94C191.05,-220.34 145.56,-206.9 114.43,-180 95.83,-163.93 83.75,-138.5 76.66,-118.92"/>
      <polygon fill="black" stroke="black" points="80.04,-117.99 73.53,-109.63 73.4,-120.22 80.04,-117.99"/>
    </g>
    <g id="node10" class="node">
      <title>:core:database</title>
      <ellipse fill="none" stroke="black" cx="339.43" cy="-162" rx="63.63" ry="18"/>
      <text text-anchor="middle" x="339.43" y="-156.95" font-family="Times,serif" font-size="14.00">:core:database</text>
    </g>
    <g id="edge11" class="edge">
      <title>:core:data-&gt;:core:database</title>
      <path fill="none" stroke="black" d="M284.89,-216.76C293.73,-208.06 304.79,-197.15 314.64,-187.43"/>
      <polygon fill="black" stroke="black" points="316.81,-190.21 321.48,-180.7 311.9,-185.22 316.81,-190.21"/>
    </g>
    <g id="node11" class="node">
      <title>:core:location</title>
      <ellipse fill="none" stroke="black" cx="196.43" cy="-162" rx="61.59" ry="18"/>
      <text text-anchor="middle" x="196.43" y="-156.95" font-family="Times,serif" font-size="14.00">:core:location</text>
    </g>
    <g id="edge12" class="edge">
      <title>:core:data-&gt;:core:location</title>
      <path fill="none" stroke="black" d="M251.73,-216.76C242.77,-208.06 231.55,-197.15 221.56,-187.43"/>
      <polygon fill="black" stroke="black" points="224.23,-185.15 214.62,-180.69 219.35,-190.17 224.23,-185.15"/>
    </g>
    <g id="node12" class="node">
      <title>:core:preferences</title>
      <ellipse fill="none" stroke="black" cx="495.43" cy="-162" rx="74.38" ry="18"/>
      <text text-anchor="middle" x="495.43" y="-156.95" font-family="Times,serif" font-size="14.00">:core:preferences</text>
    </g>
    <g id="edge15" class="edge">
      <title>:core:data-&gt;:core:preferences</title>
      <path fill="none" stroke="black" d="M304.4,-221.91C340.77,-210.69 397.51,-193.19 439.71,-180.18"/>
      <polygon fill="black" stroke="black" points="440.68,-183.55 449.2,-177.25 438.62,-176.86 440.68,-183.55"/>
    </g>
    <g id="edge18" class="edge">
      <title>:core:network-&gt;:core:model</title>
      <path fill="none" stroke="black" d="M607.41,-148.32C568.22,-136.5 509.68,-118.83 467.95,-106.24"/>
      <polygon fill="black" stroke="black" points="469.22,-102.97 458.64,-103.43 467.2,-109.67 469.22,-102.97"/>
    </g>
    <g id="edge20" class="edge">
      <title>:core:network-&gt;:core:assets</title>
      <path fill="none" stroke="red" stroke-width="2" d="M677.52,-145.64C695.94,-135.56 720.24,-122.28 740.25,-111.33"/>
      <polygon fill="red" stroke="red" stroke-width="2" points="740.53,-115.17 747.62,-107.3 737.17,-109.03 740.53,-115.17"/>
    </g>
    <g id="edge19" class="edge">
      <title>:core:network-&gt;:core:utils</title>
      <path fill="none" stroke="black" d="M604.16,-149.22C595.65,-147.28 586.8,-145.43 578.43,-144 416.07,-116.25 221.98,-100.93 126.84,-94.56"/>
      <polygon fill="black" stroke="black" points="127.19,-91.08 116.98,-93.91 126.72,-98.06 127.19,-91.08"/>
    </g>
    <g id="edge23" class="edge">
      <title>:core:ui-&gt;:soundwave</title>
      <path fill="none" stroke="black" d="M846.14,-143.59C848.51,-119.61 852.79,-76.14 855.62,-47.42"/>
      <polygon fill="black" stroke="black" points="859.09,-47.91 856.59,-37.62 852.13,-47.23 859.09,-47.91"/>
    </g>
    <g id="edge24" class="edge">
      <title>:core:ui-&gt;:core:assets</title>
      <path fill="none" stroke="black" d="M829.22,-145.12C820.86,-136.38 810.31,-125.35 800.91,-115.54"/>
      <polygon fill="black" stroke="black" points="803.52,-113.2 794.08,-108.4 798.47,-118.04 803.52,-113.2"/>
    </g>
    <g id="edge17" class="edge">
      <title>:core:database-&gt;:core:model</title>
      <path fill="none" stroke="black" d="M357.91,-144.41C367.72,-135.61 379.95,-124.63 390.77,-114.92"/>
      <polygon fill="black" stroke="black" points="392.84,-117.76 397.95,-108.48 388.17,-112.56 392.84,-117.76"/>
    </g>
    <g id="edge22" class="edge">
      <title>:core:preferences-&gt;:core:model</title>
      <path fill="none" stroke="black" d="M476.94,-144.41C467.13,-135.61 454.9,-124.63 444.08,-114.92"/>
      <polygon fill="black" stroke="black" points="446.69,-112.56 436.9,-108.48 442.01,-117.76 446.69,-112.56"/>
    </g>
  </g>
</svg>
