<?xml version="1.0" encoding="UTF-8" standalone="no"?>
<!DOCTYPE svg PUBLIC "-//W3C//DTD SVG 1.1//EN" "http://www.w3.org/Graphics/SVG/1.1/DTD/svg11.dtd">
<svg xmlns="http://www.w3.org/2000/svg" xmlns:xlink="http://www.w3.org/1999/xlink" width="246pt" height="116pt" viewBox="0.00 0.00 245.87 116.00">
  <g id="graph0" class="graph" transform="scale(1 1) rotate(0) translate(4 112)">
    <title>G</title>
    <polygon fill="white" stroke="none" points="-4,4 -4,-112 241.87,-112 241.87,4 -4,4"/>
    <g id="node1" class="node">
      <title>:data:user</title>
      <ellipse fill="none" stroke="black" cx="126.1" cy="-90" rx="46.75" ry="18"/>
      <text text-anchor="middle" x="126.1" y="-84.95" font-family="Times,serif" font-size="14.00">:data:user</text>
    </g>
    <g id="node2" class="node">
      <title>:core:network</title>
      <ellipse fill="none" stroke="black" cx="62.1" cy="-18" rx="62.1" ry="18"/>
      <text text-anchor="middle" x="62.1" y="-12.95" font-family="Times,serif" font-size="14.00">:core:network</text>
    </g>
    <g id="edge1" class="edge">
      <title>:data:user-&gt;:core:network</title>
      <path fill="none" stroke="red" stroke-width="2" d="M111.26,-72.76C103.45,-64.23 93.72,-53.58 84.97,-44.02"/>
      <polygon fill="red" stroke="red" stroke-width="2" points="88.68,-42.89 79.35,-37.87 83.51,-47.61 88.68,-42.89"/>
    </g>
    <g id="node3" class="node">
      <title>:core:utils</title>
      <ellipse fill="none" stroke="black" cx="190.1" cy="-18" rx="47.77" ry="18"/>
      <text text-anchor="middle" x="190.1" y="-12.95" font-family="Times,serif" font-size="14.00">:core:utils</text>
    </g>
    <g id="edge2" class="edge">
      <title>:data:user-&gt;:core:utils</title>
      <path fill="none" stroke="black" d="M140.94,-72.76C148.86,-64.11 158.76,-53.27 167.6,-43.6"/>
      <polygon fill="black" stroke="black" points="170.15,-46.01 174.31,-36.26 164.98,-41.28 170.15,-46.01"/>
    </g>
  </g>
</svg>
