<?xml version="1.0" encoding="UTF-8" standalone="no"?>
<!DOCTYPE svg PUBLIC "-//W3C//DTD SVG 1.1//EN" "http://www.w3.org/Graphics/SVG/1.1/DTD/svg11.dtd">
<svg xmlns="http://www.w3.org/2000/svg" xmlns:xlink="http://www.w3.org/1999/xlink" width="363pt" height="260pt" viewBox="0.00 0.00 363.13 260.00">
  <g id="graph0" class="graph" transform="scale(1 1) rotate(0) translate(4 256)">
    <title>G</title>
    <polygon fill="white" stroke="none" points="-4,4 -4,-256 359.13,-256 359.13,4 -4,4"/>
    <g id="node1" class="node">
      <title>:core:work</title>
      <ellipse fill="none" stroke="black" cx="197.56" cy="-234" rx="49.57" ry="18"/>
      <text text-anchor="middle" x="197.56" y="-228.57" font-family="Times,serif" font-size="14.00">:core:work</text>
    </g>
    <g id="node2" class="node">
      <title>:data:geopoint</title>
      <ellipse fill="none" stroke="black" cx="197.56" cy="-162" rx="62.04" ry="18"/>
      <text text-anchor="middle" x="197.56" y="-156.57" font-family="Times,serif" font-size="14.00">:data:geopoint</text>
    </g>
    <g id="edge1" class="edge">
      <title>:core:work-&gt;:data:geopoint</title>
      <path fill="none" stroke="red" stroke-width="2" d="M197.56,-215.7C197.56,-208.41 197.56,-199.73 197.56,-191.54"/>
      <polygon fill="red" stroke="red" stroke-width="2" points="201.06,-193.13 197.56,-183.13 194.06,-193.13 201.06,-193.13"/>
    </g>
    <g id="node3" class="node">
      <title>:core:assets</title>
      <ellipse fill="none" stroke="black" cx="66.56" cy="-90" rx="52.06" ry="18"/>
      <text text-anchor="middle" x="66.56" y="-84.58" font-family="Times,serif" font-size="14.00">:core:assets</text>
    </g>
    <g id="edge2" class="edge">
      <title>:data:geopoint-&gt;:core:assets</title>
      <path fill="none" stroke="red" stroke-width="2" d="M168.81,-145.64C149.74,-135.45 124.52,-121.97 103.9,-110.95"/>
      <polygon fill="red" stroke="red" stroke-width="2" points="107.04,-108.66 96.57,-107.03 103.74,-114.83 107.04,-108.66"/>
    </g>
    <g id="node4" class="node">
      <title>:core:network</title>
      <ellipse fill="none" stroke="black" cx="183.56" cy="-18" rx="60.54" ry="18"/>
      <text text-anchor="middle" x="183.56" y="-12.57" font-family="Times,serif" font-size="14.00">:core:network</text>
    </g>
    <g id="edge3" class="edge">
      <title>:data:geopoint-&gt;:core:network</title>
      <path fill="none" stroke="black" d="M190.08,-143.7C186.09,-133.52 181.59,-120.27 179.56,-108 176.24,-87.91 177.39,-64.95 179.3,-47.39"/>
      <polygon fill="black" stroke="black" points="182.74,-48.04 180.5,-37.69 175.79,-47.18 182.74,-48.04"/>
    </g>
    <g id="node5" class="node">
      <title>:core:utils</title>
      <ellipse fill="none" stroke="black" cx="308.56" cy="-18" rx="46.57" ry="18"/>
      <text text-anchor="middle" x="308.56" y="-12.57" font-family="Times,serif" font-size="14.00">:core:utils</text>
    </g>
    <g id="edge4" class="edge">
      <title>:data:geopoint-&gt;:core:utils</title>
      <path fill="none" stroke="black" d="M235.91,-147.58C254.81,-139.07 276.33,-126.18 289.56,-108 302.22,-90.61 306.79,-66.53 308.29,-47.81"/>
      <polygon fill="black" stroke="black" points="311.78,-48.08 308.81,-37.91 304.79,-47.72 311.78,-48.08"/>
    </g>
    <g id="node6" class="node">
      <title>:data:user</title>
      <ellipse fill="none" stroke="black" cx="234.56" cy="-90" rx="45.57" ry="18"/>
      <text text-anchor="middle" x="234.56" y="-84.58" font-family="Times,serif" font-size="14.00">:data:user</text>
    </g>
    <g id="edge5" class="edge">
      <title>:data:geopoint-&gt;:data:user</title>
      <path fill="none" stroke="black" d="M206.52,-144.05C210.7,-136.14 215.78,-126.54 220.45,-117.69"/>
      <polygon fill="black" stroke="black" points="223.4,-119.6 224.98,-109.13 217.21,-116.33 223.4,-119.6"/>
    </g>
    <g id="node7" class="node">
      <title>:soundwave</title>
      <ellipse fill="none" stroke="black" cx="52.56" cy="-18" rx="52.56" ry="18"/>
      <text text-anchor="middle" x="52.56" y="-12.57" font-family="Times,serif" font-size="14.00">:soundwave</text>
    </g>
    <g id="edge6" class="edge">
      <title>:core:assets-&gt;:soundwave</title>
      <path fill="none" stroke="red" stroke-width="2" d="M63.1,-71.7C61.63,-64.32 59.87,-55.52 58.21,-47.25"/>
      <polygon fill="red" stroke="red" stroke-width="2" points="61.97,-48.19 56.58,-39.07 55.1,-49.56 61.97,-48.19"/>
    </g>
    <g id="edge7" class="edge">
      <title>:data:user-&gt;:core:network</title>
      <path fill="none" stroke="black" d="M222.47,-72.41C216.53,-64.25 209.22,-54.22 202.55,-45.07"/>
      <polygon fill="black" stroke="black" points="205.52,-43.2 196.81,-37.18 199.87,-47.32 205.52,-43.2"/>
    </g>
    <g id="edge8" class="edge">
      <title>:data:user-&gt;:core:utils</title>
      <path fill="none" stroke="black" d="M251.35,-73.12C260.84,-64.14 272.89,-52.74 283.48,-42.73"/>
      <polygon fill="black" stroke="black" points="285.62,-45.52 290.48,-36.1 280.81,-40.43 285.62,-45.52"/>
    </g>
  </g>
</svg>
