<?xml version="1.0" encoding="UTF-8" standalone="no"?>
<!DOCTYPE svg PUBLIC "-//W3C//DTD SVG 1.1//EN" "http://www.w3.org/Graphics/SVG/1.1/DTD/svg11.dtd">
<svg xmlns="http://www.w3.org/2000/svg" xmlns:xlink="http://www.w3.org/1999/xlink" width="232pt" height="116pt" viewBox="0.00 0.00 232.21 116.00">
  <g id="graph0" class="graph" transform="scale(1 1) rotate(0) translate(4 112)">
    <title>G</title>
    <polygon fill="white" stroke="none" points="-4,4 -4,-112 228.21,-112 228.21,4 -4,4"/>
    <g id="node1" class="node">
      <title>:core:database</title>
      <ellipse fill="none" stroke="black" cx="115.45" cy="-90" rx="63.63" ry="18"/>
      <text text-anchor="middle" x="115.45" y="-84.95" font-family="Times,serif" font-size="14.00">:core:database</text>
    </g>
    <g id="node2" class="node">
      <title>:core:model</title>
      <ellipse fill="none" stroke="black" cx="55.45" cy="-18" rx="55.45" ry="18"/>
      <text text-anchor="middle" x="55.45" y="-12.95" font-family="Times,serif" font-size="14.00">:core:model</text>
    </g>
    <g id="edge1" class="edge">
      <title>:core:database-&gt;:core:model</title>
      <path fill="none" stroke="red" stroke-width="2" d="M100.92,-72.05C93.77,-63.71 85.01,-53.49 77.09,-44.25"/>
      <polygon fill="red" stroke="red" stroke-width="2" points="80.97,-43.4 71.81,-38.09 75.66,-47.96 80.97,-43.4"/>
    </g>
    <g id="node3" class="node">
      <title>:core:utils</title>
      <ellipse fill="none" stroke="black" cx="176.45" cy="-18" rx="47.77" ry="18"/>
      <text text-anchor="middle" x="176.45" y="-12.95" font-family="Times,serif" font-size="14.00">:core:utils</text>
    </g>
    <g id="edge2" class="edge">
      <title>:core:database-&gt;:core:utils</title>
      <path fill="none" stroke="black" d="M130.21,-72.05C137.59,-63.59 146.65,-53.19 154.8,-43.84"/>
      <polygon fill="black" stroke="black" points="157.31,-46.29 161.24,-36.45 152.03,-41.69 157.31,-46.29"/>
    </g>
  </g>
</svg>
