<?xml version="1.0" encoding="UTF-8" standalone="no"?>
<!DOCTYPE svg PUBLIC "-//W3C//DTD SVG 1.1//EN" "http://www.w3.org/Graphics/SVG/1.1/DTD/svg11.dtd">
<svg xmlns="http://www.w3.org/2000/svg" xmlns:xlink="http://www.w3.org/1999/xlink" width="698pt" height="260pt" viewBox="0.00 0.00 698.40 260.00">
  <g id="graph0" class="graph" transform="scale(1 1) rotate(0) translate(4 256)">
    <title>G</title>
    <polygon fill="white" stroke="none" points="-4,4 -4,-256 694.4,-256 694.4,4 -4,4"/>
    <g id="node1" class="node">
      <title>:core:data</title>
      <ellipse fill="none" stroke="black" cx="347.63" cy="-234" rx="47.26" ry="18"/>
      <text text-anchor="middle" x="347.63" y="-228.95" font-family="Times,serif" font-size="14.00">:core:data</text>
    </g>
    <g id="node2" class="node">
      <title>:core:database</title>
      <ellipse fill="none" stroke="black" cx="63.63" cy="-162" rx="63.63" ry="18"/>
      <text text-anchor="middle" x="63.63" y="-156.95" font-family="Times,serif" font-size="14.00">:core:database</text>
    </g>
    <g id="edge1" class="edge">
      <title>:core:data-&gt;:core:database</title>
      <path fill="none" stroke="black" d="M308.74,-223.41C260.42,-211.5 177.54,-191.07 121.68,-177.31"/>
      <polygon fill="black" stroke="black" points="122.56,-173.92 112.02,-174.92 120.89,-180.72 122.56,-173.92"/>
    </g>
    <g id="node3" class="node">
      <title>:core:location</title>
      <ellipse fill="none" stroke="black" cx="206.63" cy="-162" rx="61.59" ry="18"/>
      <text text-anchor="middle" x="206.63" y="-156.95" font-family="Times,serif" font-size="14.00">:core:location</text>
    </g>
    <g id="edge2" class="edge">
      <title>:core:data-&gt;:core:location</title>
      <path fill="none" stroke="black" d="M319.78,-219.17C299.04,-208.87 270.41,-194.66 247.14,-183.11"/>
      <polygon fill="black" stroke="black" points="248.74,-180 238.23,-178.69 245.63,-186.27 248.74,-180"/>
    </g>
    <g id="node4" class="node">
      <title>:core:model</title>
      <ellipse fill="none" stroke="black" cx="346.63" cy="-90" rx="55.45" ry="18"/>
      <text text-anchor="middle" x="346.63" y="-84.95" font-family="Times,serif" font-size="14.00">:core:model</text>
    </g>
    <g id="edge3" class="edge">
      <title>:core:data-&gt;:core:model</title>
      <path fill="none" stroke="black" d="M334.4,-216.44C327.33,-206.5 319.33,-193.25 315.63,-180 311.34,-164.59 311.45,-159.44 315.63,-144 318.14,-134.74 322.72,-125.44 327.6,-117.27"/>
      <polygon fill="black" stroke="black" points="330.52,-119.2 332.99,-108.9 324.64,-115.41 330.52,-119.2"/>
    </g>
    <g id="node5" class="node">
      <title>:core:network</title>
      <ellipse fill="none" stroke="black" cx="552.63" cy="-162" rx="62.1" ry="18"/>
      <text text-anchor="middle" x="552.63" y="-156.95" font-family="Times,serif" font-size="14.00">:core:network</text>
    </g>
    <g id="edge4" class="edge">
      <title>:core:data-&gt;:core:network</title>
      <path fill="none" stroke="red" stroke-width="2" d="M381.95,-221.28C415.04,-209.98 465.49,-192.76 502.97,-179.96"/>
      <polygon fill="red" stroke="red" stroke-width="2" points="502.46,-183.83 510.79,-177.29 500.2,-177.21 502.46,-183.83"/>
    </g>
    <g id="node6" class="node">
      <title>:core:preferences</title>
      <ellipse fill="none" stroke="black" cx="398.63" cy="-162" rx="74.38" ry="18"/>
      <text text-anchor="middle" x="398.63" y="-156.95" font-family="Times,serif" font-size="14.00">:core:preferences</text>
    </g>
    <g id="edge5" class="edge">
      <title>:core:data-&gt;:core:preferences</title>
      <path fill="none" stroke="black" d="M359.72,-216.41C365.67,-208.25 372.97,-198.22 379.64,-189.07"/>
      <polygon fill="black" stroke="black" points="382.33,-191.32 385.39,-181.18 376.67,-187.2 382.33,-191.32"/>
    </g>
    <g id="node7" class="node">
      <title>:core:utils</title>
      <ellipse fill="none" stroke="black" cx="642.63" cy="-90" rx="47.77" ry="18"/>
      <text text-anchor="middle" x="642.63" y="-84.95" font-family="Times,serif" font-size="14.00">:core:utils</text>
    </g>
    <g id="edge6" class="edge">
      <title>:core:data-&gt;:core:utils</title>
      <path fill="none" stroke="black" d="M394.1,-230.17C464.06,-224.94 591.7,-211.28 623.63,-180 639.43,-164.53 643.63,-139.37 644.2,-119.75"/>
      <polygon fill="black" stroke="black" points="647.7,-119.88 644.16,-109.89 640.7,-119.9 647.7,-119.88"/>
    </g>
    <g id="edge7" class="edge">
      <title>:core:database-&gt;:core:model</title>
      <path fill="none" stroke="black" d="M110.37,-149.44C160.39,-137.07 239.65,-117.46 292.39,-104.42"/>
      <polygon fill="black" stroke="black" points="293.21,-107.82 302.08,-102.02 291.53,-101.02 293.21,-107.82"/>
    </g>
    <g id="edge8" class="edge">
      <title>:core:network-&gt;:core:model</title>
      <path fill="none" stroke="black" d="M513.4,-147.67C479.66,-136.2 430.85,-119.62 394.75,-107.35"/>
      <polygon fill="black" stroke="black" points="396.01,-104.08 385.42,-104.18 393.76,-110.71 396.01,-104.08"/>
    </g>
    <g id="edge9" class="edge">
      <title>:core:network-&gt;:core:utils</title>
      <path fill="none" stroke="black" d="M573.51,-144.76C585.38,-135.53 600.42,-123.83 613.44,-113.7"/>
      <polygon fill="black" stroke="black" points="615.55,-116.5 621.3,-107.6 611.26,-110.97 615.55,-116.5"/>
    </g>
    <g id="node8" class="node">
      <title>:core:assets</title>
      <ellipse fill="none" stroke="black" cx="523.63" cy="-90" rx="53.4" ry="18"/>
      <text text-anchor="middle" x="523.63" y="-84.95" font-family="Times,serif" font-size="14.00">:core:assets</text>
    </g>
    <g id="edge10" class="edge">
      <title>:core:network-&gt;:core:assets</title>
      <path fill="none" stroke="red" stroke-width="2" d="M545.47,-143.7C542.34,-136.15 538.6,-127.12 535.1,-118.68"/>
      <polygon fill="red" stroke="red" stroke-width="2" points="538.94,-118.8 531.88,-110.9 532.47,-121.48 538.94,-118.8"/>
    </g>
    <g id="edge12" class="edge">
      <title>:core:preferences-&gt;:core:model</title>
      <path fill="none" stroke="black" d="M386.05,-144.05C379.98,-135.89 372.57,-125.91 365.82,-116.82"/>
      <polygon fill="black" stroke="black" points="368.78,-114.94 360.01,-109 363.16,-119.12 368.78,-114.94"/>
    </g>
    <g id="node9" class="node">
      <title>:soundwave</title>
      <ellipse fill="none" stroke="black" cx="523.63" cy="-18" rx="54.93" ry="18"/>
      <text text-anchor="middle" x="523.63" y="-12.95" font-family="Times,serif" font-size="14.00">:soundwave</text>
    </g>
    <g id="edge11" class="edge">
      <title>:core:assets-&gt;:soundwave</title>
      <path fill="none" stroke="red" stroke-width="2" d="M523.63,-71.7C523.63,-64.41 523.63,-55.73 523.63,-47.54"/>
      <polygon fill="red" stroke="red" stroke-width="2" points="527.13,-49.13 523.63,-39.13 520.13,-49.13 527.13,-49.13"/>
    </g>
  </g>
</svg>
