<?xml version="1.0" encoding="UTF-8" standalone="no"?>
<!DOCTYPE svg PUBLIC "-//W3C//DTD SVG 1.1//EN" "http://www.w3.org/Graphics/SVG/1.1/DTD/svg11.dtd">
<svg xmlns="http://www.w3.org/2000/svg" xmlns:xlink="http://www.w3.org/1999/xlink" width="450pt" height="188pt" viewBox="0.00 0.00 449.63 188.00">
  <g id="graph0" class="graph" transform="scale(1 1) rotate(0) translate(4 184)">
    <title>G</title>
    <polygon fill="white" stroke="none" points="-4,4 -4,-184 445.63,-184 445.63,4 -4,4"/>
    <g id="node1" class="node">
      <title>:feature:addgeopoint</title>
      <ellipse fill="none" stroke="black" cx="193.06" cy="-162" rx="85" ry="18"/>
      <text text-anchor="middle" x="193.06" y="-156.57" font-family="Times,serif" font-size="14.00">:feature:addgeopoint</text>
    </g>
    <g id="node2" class="node">
      <title>:core:assets</title>
      <ellipse fill="none" stroke="black" cx="52.06" cy="-90" rx="52.06" ry="18"/>
      <text text-anchor="middle" x="52.06" y="-84.58" font-family="Times,serif" font-size="14.00">:core:assets</text>
    </g>
    <g id="edge1" class="edge">
      <title>:feature:addgeopoint-&gt;:core:assets</title>
      <path fill="none" stroke="red" stroke-width="2" d="M160.71,-144.94C140.03,-134.67 113.08,-121.29 91.2,-110.43"/>
      <polygon fill="red" stroke="red" stroke-width="2" points="94.13,-107.98 83.62,-106.67 91.02,-114.25 94.13,-107.98"/>
    </g>
    <g id="node3" class="node">
      <title>:core:ui</title>
      <ellipse fill="none" stroke="black" cx="160.06" cy="-90" rx="38.09" ry="18"/>
      <text text-anchor="middle" x="160.06" y="-84.58" font-family="Times,serif" font-size="14.00">:core:ui</text>
    </g>
    <g id="edge2" class="edge">
      <title>:feature:addgeopoint-&gt;:core:ui</title>
      <path fill="none" stroke="black" d="M184.9,-143.7C181.25,-135.95 176.86,-126.64 172.8,-118.02"/>
      <polygon fill="black" stroke="black" points="175.97,-116.54 168.54,-108.99 169.64,-119.53 175.97,-116.54"/>
    </g>
    <g id="node4" class="node">
      <title>:data:user</title>
      <ellipse fill="none" stroke="black" cx="300.06" cy="-90" rx="45.57" ry="18"/>
      <text text-anchor="middle" x="300.06" y="-84.58" font-family="Times,serif" font-size="14.00">:data:user</text>
    </g>
    <g id="edge3" class="edge">
      <title>:feature:addgeopoint-&gt;:data:user</title>
      <path fill="none" stroke="black" d="M218.42,-144.41C233.26,-134.7 252.14,-122.35 268.01,-111.97"/>
      <polygon fill="black" stroke="black" points="269.71,-115.04 276.17,-106.63 265.88,-109.18 269.71,-115.04"/>
    </g>
    <g id="node5" class="node">
      <title>:soundwave</title>
      <ellipse fill="none" stroke="black" cx="110.06" cy="-18" rx="52.56" ry="18"/>
      <text text-anchor="middle" x="110.06" y="-12.57" font-family="Times,serif" font-size="14.00">:soundwave</text>
    </g>
    <g id="edge4" class="edge">
      <title>:feature:addgeopoint-&gt;:soundwave</title>
      <path fill="none" stroke="black" d="M202.1,-143.67C210.61,-124.75 220.23,-94.2 207.06,-72 196.75,-54.62 178.5,-42.56 160.6,-34.4"/>
      <polygon fill="black" stroke="black" points="162.13,-31.25 151.55,-30.62 159.43,-37.71 162.13,-31.25"/>
    </g>
    <g id="edge5" class="edge">
      <title>:core:assets-&gt;:soundwave</title>
      <path fill="none" stroke="red" stroke-width="2" d="M65.81,-72.41C72.81,-63.95 81.48,-53.49 89.28,-44.08"/>
      <polygon fill="red" stroke="red" stroke-width="2" points="90.8,-47.73 94.48,-37.8 85.41,-43.27 90.8,-47.73"/>
    </g>
    <g id="node6" class="node">
      <title>:core:network</title>
      <ellipse fill="none" stroke="black" cx="270.06" cy="-18" rx="60.54" ry="18"/>
      <text text-anchor="middle" x="270.06" y="-12.57" font-family="Times,serif" font-size="14.00">:core:network</text>
    </g>
    <g id="edge6" class="edge">
      <title>:data:user-&gt;:core:network</title>
      <path fill="none" stroke="black" d="M292.8,-72.05C289.53,-64.43 285.59,-55.23 281.91,-46.65"/>
      <polygon fill="black" stroke="black" points="285.22,-45.48 278.06,-37.67 278.78,-48.24 285.22,-45.48"/>
    </g>
    <g id="node7" class="node">
      <title>:core:utils</title>
      <ellipse fill="none" stroke="black" cx="395.06" cy="-18" rx="46.57" ry="18"/>
      <text text-anchor="middle" x="395.06" y="-12.57" font-family="Times,serif" font-size="14.00">:core:utils</text>
    </g>
    <g id="edge7" class="edge">
      <title>:data:user-&gt;:core:utils</title>
      <path fill="none" stroke="black" d="M320.68,-73.81C333.66,-64.25 350.63,-51.74 365.09,-41.08"/>
      <polygon fill="black" stroke="black" points="366.97,-44.05 372.94,-35.3 362.82,-38.41 366.97,-44.05"/>
    </g>
  </g>
</svg>
