<?xml version="1.0" encoding="UTF-8" standalone="no"?>
<!DOCTYPE svg PUBLIC "-//W3C//DTD SVG 1.1//EN" "http://www.w3.org/Graphics/SVG/1.1/DTD/svg11.dtd">
<svg xmlns="http://www.w3.org/2000/svg" xmlns:xlink="http://www.w3.org/1999/xlink" width="739pt" height="332pt" viewBox="0.00 0.00 739.22 332.00">
  <g id="graph0" class="graph" transform="scale(1 1) rotate(0) translate(4 328)">
    <title>G</title>
    <polygon fill="white" stroke="none" points="-4,4 -4,-328 735.22,-328 735.22,4 -4,4"/>
    <g id="node1" class="node">
      <title>:feature:exploregeopoints</title>
      <ellipse fill="none" stroke="black" cx="534.29" cy="-306" rx="105.09" ry="18"/>
      <text text-anchor="middle" x="534.29" y="-300.95" font-family="Times,serif" font-size="14.00">:feature:exploregeopoints</text>
    </g>
    <g id="node2" class="node">
      <title>:core:data</title>
      <ellipse fill="none" stroke="black" cx="281.29" cy="-234" rx="47.26" ry="18"/>
      <text text-anchor="middle" x="281.29" y="-228.95" font-family="Times,serif" font-size="14.00">:core:data</text>
    </g>
    <g id="edge1" class="edge">
      <title>:feature:exploregeopoints-&gt;:core:data</title>
      <path fill="none" stroke="red" stroke-width="2" d="M480.64,-290.15C436.03,-277.81 373.09,-260.4 329.94,-248.46"/>
      <polygon fill="red" stroke="red" stroke-width="2" points="332.36,-245.5 321.79,-246.2 330.49,-252.24 332.36,-245.5"/>
    </g>
    <g id="node3" class="node">
      <title>:core:model</title>
      <ellipse fill="none" stroke="black" cx="193.29" cy="-90" rx="55.45" ry="18"/>
      <text text-anchor="middle" x="193.29" y="-84.95" font-family="Times,serif" font-size="14.00">:core:model</text>
    </g>
    <g id="edge2" class="edge">
      <title>:feature:exploregeopoints-&gt;:core:model</title>
      <path fill="none" stroke="black" d="M441.51,-297.18C304.4,-283.4 58.42,-249.45 8.29,-180 -26.66,-131.58 63.39,-108.41 129.79,-98.19"/>
      <polygon fill="black" stroke="black" points="130.16,-101.67 139.55,-96.76 129.15,-94.75 130.16,-101.67"/>
    </g>
    <g id="node4" class="node">
      <title>:soundwave</title>
      <ellipse fill="none" stroke="black" cx="676.29" cy="-18" rx="54.93" ry="18"/>
      <text text-anchor="middle" x="676.29" y="-12.95" font-family="Times,serif" font-size="14.00">:soundwave</text>
    </g>
    <g id="edge3" class="edge">
      <title>:feature:exploregeopoints-&gt;:soundwave</title>
      <path fill="none" stroke="black" d="M578.91,-289.27C622.86,-270.91 686.75,-235.76 710.29,-180 729.16,-135.31 708.04,-79.07 691.68,-46.27"/>
      <polygon fill="black" stroke="black" points="694.8,-44.68 687.07,-37.43 688.59,-47.92 694.8,-44.68"/>
    </g>
    <g id="node5" class="node">
      <title>:core:assets</title>
      <ellipse fill="none" stroke="black" cx="595.29" cy="-90" rx="53.4" ry="18"/>
      <text text-anchor="middle" x="595.29" y="-84.95" font-family="Times,serif" font-size="14.00">:core:assets</text>
    </g>
    <g id="edge4" class="edge">
      <title>:feature:exploregeopoints-&gt;:core:assets</title>
      <path fill="none" stroke="black" d="M549.18,-288.04C557.02,-278.18 566.06,-265.14 571.29,-252 588.8,-207.99 593.67,-152.61 594.95,-119.6"/>
      <polygon fill="black" stroke="black" points="598.44,-119.72 595.23,-109.63 591.45,-119.52 598.44,-119.72"/>
    </g>
    <g id="node6" class="node">
      <title>:core:database</title>
      <ellipse fill="none" stroke="black" cx="323.29" cy="-162" rx="63.63" ry="18"/>
      <text text-anchor="middle" x="323.29" y="-156.95" font-family="Times,serif" font-size="14.00">:core:database</text>
    </g>
    <g id="edge5" class="edge">
      <title>:feature:exploregeopoints-&gt;:core:database</title>
      <path fill="none" stroke="black" d="M509.26,-288.15C471.18,-262.53 398.66,-213.73 356.31,-185.22"/>
      <polygon fill="black" stroke="black" points="358.5,-182.48 348.25,-179.8 354.59,-188.29 358.5,-182.48"/>
    </g>
    <g id="node7" class="node">
      <title>:core:network</title>
      <ellipse fill="none" stroke="black" cx="467.29" cy="-162" rx="62.1" ry="18"/>
      <text text-anchor="middle" x="467.29" y="-156.95" font-family="Times,serif" font-size="14.00">:core:network</text>
    </g>
    <g id="edge6" class="edge">
      <title>:feature:exploregeopoints-&gt;:core:network</title>
      <path fill="none" stroke="black" d="M526.08,-287.59C514.61,-263.29 493.7,-218.97 480.16,-190.27"/>
      <polygon fill="black" stroke="black" points="483.44,-189.03 476.01,-181.48 477.11,-192.02 483.44,-189.03"/>
    </g>
    <g id="node8" class="node">
      <title>:core:ui</title>
      <ellipse fill="none" stroke="black" cx="662.29" cy="-162" rx="39.07" ry="18"/>
      <text text-anchor="middle" x="662.29" y="-156.95" font-family="Times,serif" font-size="14.00">:core:ui</text>
    </g>
    <g id="edge7" class="edge">
      <title>:feature:exploregeopoints-&gt;:core:ui</title>
      <path fill="none" stroke="black" d="M563.57,-288.38C578.43,-278.99 596.08,-266.28 609.29,-252 626.23,-233.68 640.38,-209.07 649.79,-190.37"/>
      <polygon fill="black" stroke="black" points="652.87,-192.02 654.1,-181.5 646.58,-188.96 652.87,-192.02"/>
    </g>
    <g id="node9" class="node">
      <title>:core:utils</title>
      <ellipse fill="none" stroke="black" cx="395.29" cy="-90" rx="47.77" ry="18"/>
      <text text-anchor="middle" x="395.29" y="-84.95" font-family="Times,serif" font-size="14.00">:core:utils</text>
    </g>
    <g id="edge8" class="edge">
      <title>:feature:exploregeopoints-&gt;:core:utils</title>
      <path fill="none" stroke="black" d="M540.83,-287.61C551.55,-255.88 568.79,-187.84 538.29,-144 519.03,-116.32 483.54,-103.06 452.74,-96.73"/>
      <polygon fill="black" stroke="black" points="453.6,-93.33 443.13,-94.97 452.33,-100.22 453.6,-93.33"/>
    </g>
    <g id="edge10" class="edge">
      <title>:core:data-&gt;:core:model</title>
      <path fill="none" stroke="black" d="M256.78,-218.15C243.28,-208.78 227.28,-195.53 217.29,-180 205.58,-161.78 199.54,-137.95 196.45,-119.53"/>
      <polygon fill="black" stroke="black" points="199.94,-119.21 195.04,-109.82 193.02,-120.22 199.94,-119.21"/>
    </g>
    <g id="edge9" class="edge">
      <title>:core:data-&gt;:core:database</title>
      <path fill="none" stroke="black" d="M291.46,-216.05C296.26,-208.06 302.09,-198.33 307.45,-189.4"/>
      <polygon fill="black" stroke="black" points="310.29,-191.46 312.44,-181.09 304.29,-187.86 310.29,-191.46"/>
    </g>
    <g id="edge11" class="edge">
      <title>:core:data-&gt;:core:network</title>
      <path fill="none" stroke="red" stroke-width="2" d="M314.12,-220.65C343.48,-209.6 386.86,-193.27 419.97,-180.81"/>
      <polygon fill="red" stroke="red" stroke-width="2" points="419.37,-184.78 427.49,-177.98 416.9,-178.22 419.37,-184.78"/>
    </g>
    <g id="edge13" class="edge">
      <title>:core:data-&gt;:core:utils</title>
      <path fill="none" stroke="black" d="M267.24,-216.67C252.81,-197.82 234.54,-166.53 250.29,-144 269.92,-115.93 306.09,-102.67 337.39,-96.44"/>
      <polygon fill="black" stroke="black" points="337.94,-99.9 347.17,-94.71 336.72,-93.01 337.94,-99.9"/>
    </g>
    <g id="node10" class="node">
      <title>:core:preferences</title>
      <ellipse fill="none" stroke="black" cx="91.29" cy="-162" rx="74.38" ry="18"/>
      <text text-anchor="middle" x="91.29" y="-156.95" font-family="Times,serif" font-size="14.00">:core:preferences</text>
    </g>
    <g id="edge12" class="edge">
      <title>:core:data-&gt;:core:preferences</title>
      <path fill="none" stroke="black" d="M248.2,-220.81C218.74,-209.96 175.23,-193.92 141.49,-181.49"/>
      <polygon fill="black" stroke="black" points="142.92,-178.29 132.33,-178.12 140.5,-184.86 142.92,-178.29"/>
    </g>
    <g id="edge19" class="edge">
      <title>:core:assets-&gt;:soundwave</title>
      <path fill="none" stroke="red" stroke-width="2" d="M614.08,-72.76C624.51,-63.75 637.66,-52.39 649.18,-42.43"/>
      <polygon fill="red" stroke="red" stroke-width="2" points="650.04,-46.31 655.32,-37.13 645.46,-41.02 650.04,-46.31"/>
    </g>
    <g id="edge14" class="edge">
      <title>:core:database-&gt;:core:model</title>
      <path fill="none" stroke="black" d="M294.76,-145.64C275.96,-135.52 251.15,-122.15 230.76,-111.18"/>
      <polygon fill="black" stroke="black" points="232.66,-108.22 222.19,-106.56 229.34,-114.39 232.66,-108.22"/>
    </g>
    <g id="edge15" class="edge">
      <title>:core:database-&gt;:core:utils</title>
      <path fill="none" stroke="black" d="M340.35,-144.41C349.45,-135.57 360.8,-124.53 370.82,-114.79"/>
      <polygon fill="black" stroke="black" points="373.03,-117.52 377.76,-108.04 368.15,-112.5 373.03,-117.52"/>
    </g>
    <g id="edge16" class="edge">
      <title>:core:network-&gt;:core:model</title>
      <path fill="none" stroke="black" d="M421.74,-149.36C373.64,-137.07 297.86,-117.71 246.91,-104.7"/>
      <polygon fill="black" stroke="black" points="247.82,-101.32 237.26,-102.23 246.08,-108.1 247.82,-101.32"/>
    </g>
    <g id="edge18" class="edge">
      <title>:core:network-&gt;:core:assets</title>
      <path fill="none" stroke="red" stroke-width="2" d="M495.38,-145.64C513.81,-135.56 538.1,-122.28 558.12,-111.33"/>
      <polygon fill="red" stroke="red" stroke-width="2" points="558.39,-115.17 565.49,-107.3 555.03,-109.03 558.39,-115.17"/>
    </g>
    <g id="edge17" class="edge">
      <title>:core:network-&gt;:core:utils</title>
      <path fill="none" stroke="black" d="M450.23,-144.41C441.13,-135.57 429.78,-124.53 419.76,-114.79"/>
      <polygon fill="black" stroke="black" points="422.43,-112.5 412.82,-108.04 417.55,-117.52 422.43,-112.5"/>
    </g>
    <g id="edge21" class="edge">
      <title>:core:ui-&gt;:soundwave</title>
      <path fill="none" stroke="black" d="M664.01,-143.59C666.37,-119.61 670.66,-76.14 673.49,-47.42"/>
      <polygon fill="black" stroke="black" points="676.96,-47.91 674.46,-37.62 669.99,-47.23 676.96,-47.91"/>
    </g>
    <g id="edge22" class="edge">
      <title>:core:ui-&gt;:core:assets</title>
      <path fill="none" stroke="black" d="M647.09,-145.12C638.73,-136.38 628.17,-125.35 618.77,-115.54"/>
      <polygon fill="black" stroke="black" points="621.39,-113.2 611.95,-108.4 616.33,-118.04 621.39,-113.2"/>
    </g>
    <g id="edge20" class="edge">
      <title>:core:preferences-&gt;:core:model</title>
      <path fill="none" stroke="black" d="M115.21,-144.59C128.83,-135.24 146.08,-123.4 160.9,-113.23"/>
      <polygon fill="black" stroke="black" points="162.72,-116.23 168.98,-107.68 158.75,-110.46 162.72,-116.23"/>
    </g>
  </g>
</svg>
